# xmcd
#
# Track frame offsets:
#	150
#	14485
#	30107
#	52165
#	68282
#	80283
#	100663
#	112053
#	126426
#	143908
#	167123
#	179645
#
# Disc length: 2583 seconds
# Revision: 0
# Processed by: cddbd v1.5.2PL0 Copyright (c) Steve Scherf et al.
# Submitted via: dBpowerAMP V12.0
#
DISCID=9e0a150c
DTITLE=Canned Heat - One More River To Cross
DYEAR=1900
DGENRE=
TTITLE0=One More River To Cross
TTITLE1=L.A. Town
TTITLE2=I Need Someone
TTITLE3=Bagful of Boogie
TTITLE4=I'm a Hog For You Baby
TTITLE5=You am What You Am
TTITLE6=Shake Rattle and Roll
TTITLE7=Bright Times Are Coming
TTITLE8=Highway 401
TTITLE9=We Remember Fats
TTITLE10=The Harder The Come
TTITLE11=Rock n Roll Show
EXTD=
EXTT0=
EXTT1=
EXTT2=
EXTT3=
EXTT4=
EXTT5=
EXTT6=
EXTT7=
EXTT8=
EXTT9=
EXTT10=
EXTT11=
PLAYORDER=
